<svg width="34" height="34" viewBox="0 0 34 34" fill="none" xmlns="http://www.w3.org/2000/svg">
<path fill-rule="evenodd" clip-rule="evenodd" d="M29.3959 23.6782C29.3942 23.7461 29.3875 23.8138 29.3761 23.8808C29.406 24.0345 29.4014 24.193 29.3629 24.3449C29.3243 24.4967 29.2526 24.6382 29.153 24.7591C29.0533 24.88 28.9282 24.9774 28.7865 25.0442C28.6448 25.1111 28.4901 25.1458 28.3334 25.1458H8.50008C8.26753 25.1458 8.03726 25.1916 7.82241 25.2806C7.60757 25.3696 7.41235 25.5001 7.24791 25.6645C7.08348 25.8289 6.95304 26.0242 6.86404 26.239C6.77505 26.4538 6.72925 26.6841 6.72925 26.9167C6.72925 27.1492 6.77505 27.3795 6.86404 27.5943C6.95304 27.8092 7.08348 28.0044 7.24791 28.1688C7.41235 28.3333 7.60757 28.4637 7.82241 28.5527C8.03726 28.6417 8.26753 28.6875 8.50008 28.6875H28.3334C28.6152 28.6875 28.8855 28.7994 29.0847 28.9987C29.284 29.198 29.3959 29.4682 29.3959 29.75C29.3959 30.0318 29.284 30.302 29.0847 30.5013C28.8855 30.7006 28.6152 30.8125 28.3334 30.8125H8.50008C7.46684 30.8125 6.47592 30.402 5.74531 29.6714C5.0147 28.9408 4.60425 27.9499 4.60425 26.9167V7.08333C4.60425 6.05009 5.0147 5.05917 5.74531 4.32856C6.47592 3.59795 7.46684 3.1875 8.50008 3.1875H27.4834C28.5402 3.1875 29.3959 4.04317 29.3959 5.1V23.6782ZM12.7501 8.85417C12.4683 8.85417 12.198 8.96611 11.9988 9.16537C11.7995 9.36462 11.6876 9.63487 11.6876 9.91667C11.6876 10.1985 11.7995 10.4687 11.9988 10.668C12.198 10.8672 12.4683 10.9792 12.7501 10.9792H21.2501C21.5319 10.9792 21.8021 10.8672 22.0014 10.668C22.2006 10.4687 22.3126 10.1985 22.3126 9.91667C22.3126 9.63487 22.2006 9.36462 22.0014 9.16537C21.8021 8.96611 21.5319 8.85417 21.2501 8.85417H12.7501Z" fill="white"/>
</svg>
