<svg width="43" height="43" viewBox="0 0 43 43" fill="none" xmlns="http://www.w3.org/2000/svg">
<path d="M22.2238 21.5L27.9428 27.185V15.815L22.2238 21.5ZM35.8333 32.938C35.8333 33.7407 35.5514 34.4239 34.9877 34.9877C34.4239 35.5514 33.7413 35.8333 32.9398 35.8333H10.0602C9.25992 35.8333 8.5773 35.5514 8.01232 34.9877C7.44855 34.4239 7.16666 33.7407 7.16666 32.938L7.16666 10.0602C7.16666 9.25993 7.44855 8.5773 8.01232 8.01233C8.5761 7.44855 9.25932 7.16666 10.062 7.16666H32.9398C33.7401 7.16666 34.4227 7.44855 34.9877 8.01233C35.5514 8.57611 35.8333 9.25873 35.8333 10.0602V32.938ZM14.3333 8.95833H10.062C9.78607 8.95833 9.53285 9.07299 9.30232 9.30233C9.0718 9.53166 8.95713 9.78488 8.95832 10.062L8.95832 32.938C8.95832 33.2139 9.07299 33.4671 9.30232 33.6977C9.53166 33.9282 9.78488 34.0429 10.062 34.0417H14.3333L14.3333 8.95833ZM16.125 34.0417H32.9398C33.2145 34.0417 33.4671 33.927 33.6977 33.6977C33.9282 33.4683 34.0429 33.2157 34.0417 32.9398V10.0602C34.0417 9.78548 33.927 9.53286 33.6977 9.30233C33.4683 9.0718 33.2157 8.95713 32.9398 8.95833H16.125V34.0417Z" fill="black"/>
</svg>
