<svg width="100" height="100" viewBox="0 0 100 100" fill="none" xmlns="http://www.w3.org/2000/svg">
<path fill-rule="evenodd" clip-rule="evenodd" d="M59.3749 10.4167C59.3749 10.1404 59.2652 9.87545 59.0698 9.6801C58.8745 9.48475 58.6095 9.375 58.3333 9.375H29.1666C26.1276 9.375 23.2132 10.5822 21.0643 12.7311C18.9155 14.8799 17.7083 17.7944 17.7083 20.8333V79.1667C17.7083 82.2056 18.9155 85.1201 21.0643 87.2689C23.2132 89.4178 26.1276 90.625 29.1666 90.625H70.8332C73.8722 90.625 76.7867 89.4178 78.9355 87.2689C81.0844 85.1201 82.2916 82.2056 82.2916 79.1667V38.1125C82.2916 37.8362 82.1818 37.5713 81.9865 37.3759C81.7911 37.1806 81.5262 37.0708 81.2499 37.0708H62.4999C61.6711 37.0708 60.8763 36.7416 60.2902 36.1555C59.7042 35.5695 59.3749 34.7746 59.3749 33.9458V10.4167ZM62.4999 51.0417C63.3287 51.0417 64.1236 51.3709 64.7096 51.957C65.2957 52.543 65.6249 53.3379 65.6249 54.1667C65.6249 54.9955 65.2957 55.7903 64.7096 56.3764C64.1236 56.9624 63.3287 57.2917 62.4999 57.2917H37.4999C36.6711 57.2917 35.8763 56.9624 35.2902 56.3764C34.7042 55.7903 34.3749 54.9955 34.3749 54.1667C34.3749 53.3379 34.7042 52.543 35.2902 51.957C35.8763 51.3709 36.6711 51.0417 37.4999 51.0417H62.4999ZM62.4999 67.7083C63.3287 67.7083 64.1236 68.0376 64.7096 68.6236C65.2957 69.2097 65.6249 70.0045 65.6249 70.8333C65.6249 71.6621 65.2957 72.457 64.7096 73.043C64.1236 73.6291 63.3287 73.9583 62.4999 73.9583H37.4999C36.6711 73.9583 35.8763 73.6291 35.2902 73.043C34.7042 72.457 34.3749 71.6621 34.3749 70.8333C34.3749 70.0045 34.7042 69.2097 35.2902 68.6236C35.8763 68.0376 36.6711 67.7083 37.4999 67.7083H62.4999Z" fill="black"/>
<path d="M65.625 11.7667C65.625 11 66.4292 10.5125 67.025 10.9917C67.5306 11.4 67.9792 11.875 68.3708 12.4167L80.925 29.9042C81.2083 30.3042 80.9 30.8209 80.4083 30.8209H66.6667C66.3904 30.8209 66.1254 30.7111 65.9301 30.5158C65.7347 30.3204 65.625 30.0555 65.625 29.7792V11.7667Z" fill="black"/>
</svg>
