<svg width="30" height="30" viewBox="0 0 30 30" fill="none" xmlns="http://www.w3.org/2000/svg">
<g clip-path="url(#clip0_292_36)">
<path fill-rule="evenodd" clip-rule="evenodd" d="M2.8125 7.5C2.8125 6.75408 3.10882 6.03871 3.63626 5.51126C4.16371 4.98382 4.87908 4.6875 5.625 4.6875H24.375C25.1209 4.6875 25.8363 4.98382 26.3637 5.51126C26.8912 6.03871 27.1875 6.75408 27.1875 7.5V13.5938C27.1875 13.9667 27.3357 14.3244 27.5994 14.5881C27.8631 14.8518 28.2208 15 28.5938 15C28.9667 15 29.3244 14.8518 29.5881 14.5881C29.8518 14.3244 30 13.9667 30 13.5938V7.5C30 6.00816 29.4074 4.57742 28.3525 3.52252C27.2976 2.46763 25.8668 1.875 24.375 1.875H5.625C4.13316 1.875 2.70242 2.46763 1.64752 3.52252C0.592632 4.57742 0 6.00816 0 7.5L0 28.5938C0.000244476 28.8717 0.0828521 29.1433 0.237389 29.3744C0.391927 29.6054 0.611462 29.7855 0.868268 29.8918C1.12507 29.9981 1.40763 30.026 1.68026 29.9718C1.95288 29.9177 2.20334 29.7839 2.4 29.5875L7.61813 24.375H15.4688C15.8417 24.375 16.1994 24.2268 16.4631 23.9631C16.7268 23.6994 16.875 23.3417 16.875 22.9688C16.875 22.5958 16.7268 22.2381 16.4631 21.9744C16.1994 21.7107 15.8417 21.5625 15.4688 21.5625H6.45563L6.04313 21.975L2.8125 25.2V7.5ZM24.375 26.25C24.002 26.25 23.6444 26.1018 23.3806 25.8381C23.1169 25.5744 22.9688 25.2167 22.9688 24.8438V22.0312H20.1562C19.7833 22.0312 19.4256 21.8831 19.1619 21.6194C18.8982 21.3556 18.75 20.998 18.75 20.625C18.75 20.252 18.8982 19.8944 19.1619 19.6306C19.4256 19.3669 19.7833 19.2188 20.1562 19.2188H22.9688V16.4062C22.9688 16.0333 23.1169 15.6756 23.3806 15.4119C23.6444 15.1482 24.002 15 24.375 15C24.748 15 25.1056 15.1482 25.3694 15.4119C25.6331 15.6756 25.7812 16.0333 25.7812 16.4062V19.2188H28.5938C28.9667 19.2188 29.3244 19.3669 29.5881 19.6306C29.8518 19.8944 30 20.252 30 20.625C30 20.998 29.8518 21.3556 29.5881 21.6194C29.3244 21.8831 28.9667 22.0312 28.5938 22.0312H25.7812V24.8438C25.7812 25.2167 25.6331 25.5744 25.3694 25.8381C25.1056 26.1018 24.748 26.25 24.375 26.25Z" fill="white"/>
</g>
<defs>
<clipPath id="clip0_292_36">
<rect width="30" height="30" fill="white"/>
</clipPath>
</defs>
</svg>
